<?xml version="1.0" encoding="UTF-8" standalone="no"?>
<svg
   xmlns:dc="http://purl.org/dc/elements/1.1/"
   xmlns:cc="http://creativecommons.org/ns#"
   xmlns:rdf="http://www.w3.org/1999/02/22-rdf-syntax-ns#"
   xmlns:svg="http://www.w3.org/2000/svg"
   xmlns="http://www.w3.org/2000/svg"
   xmlns:sodipodi="http://sodipodi.sourceforge.net/DTD/sodipodi-0.dtd"
   xmlns:inkscape="http://www.inkscape.org/namespaces/inkscape"
   id="svg2"
   sodipodi:docname="epirice-hex.svg"
   viewBox="0 0 155.55118 179.99998"
   version="1.1"
   inkscape:version="1.0.1 (c497b03c, 2020-09-10)"
   width="4.3899999cm"
   height="5.0799999cm"
   inkscape:export-filename="/Users/adamsparks/Sources/GitHub/R/epicrop/man/figures/logo.png"
   inkscape:export-xdpi="150"
   inkscape:export-ydpi="150">
  <title
     id="title2108">epicrop</title>
  <defs
     id="defs4">
    <marker
       style="overflow:visible"
       id="Arrow1Lstart"
       refX="0.0"
       refY="0.0"
       orient="auto"
       inkscape:stockid="Arrow1Lstart"
       inkscape:isstock="true">
      <path
         transform="scale(0.8) translate(12.5,0)"
         style="fill-rule:evenodd;stroke:#000000;stroke-width:1pt;stroke-opacity:1;fill:#000000;fill-opacity:1"
         d="M 0.0,0.0 L 5.0,-5.0 L -12.5,0.0 L 5.0,5.0 L 0.0,0.0 z "
         id="path1832" />
    </marker>
    <style
       id="style22186">.cls-1{fill:none;}.cls-2{fill:#ba6f38;}.cls-3{clip-path:url(#clip-path);}.cls-4{fill:#ed7d15;}.cls-5{opacity:0.25;fill:url(#linear-gradient);}.cls-6{fill:#ac5d12;}.cls-7{clip-path:url(#clip-path-2);}.cls-8{fill:#36a85d;}.cls-9{fill:#e6b35a;}.cls-10{fill:#fff;}.cls-11{opacity:0.94;}</style>
    <clipPath
       id="clip-path">
      <polygon
         id="polygon22189"
         points="369.5,845 2.8,636.6 2.8,214.5 369.5,7.4 369.5,7.4 728.2,214.5 728.2,636.6 "
         class="cls-1"
         style="fill:none" />
    </clipPath>
  </defs>
  <sodipodi:namedview
     id="base"
     bordercolor="#666666"
     inkscape:pageshadow="2"
     inkscape:window-y="23"
     pagecolor="#ffffff"
     inkscape:window-height="796"
     inkscape:window-maximized="0"
     inkscape:zoom="3.0684016"
     inkscape:window-x="79"
     showgrid="false"
     borderopacity="1.0"
     inkscape:current-layer="layer1"
     inkscape:cx="101.79173"
     inkscape:cy="95.561179"
     inkscape:window-width="1321"
     inkscape:pageopacity="0"
     inkscape:document-units="px"
     fit-margin-top="0"
     fit-margin-left="0"
     fit-margin-right="0"
     fit-margin-bottom="0"
     units="cm"
     inkscape:document-rotation="0" />
  <g
     id="layer1"
     inkscape:label="Layer 1"
     inkscape:groupmode="layer"
     transform="translate(1791.5878,11.261005)">
    <g
       id="g2502"
       transform="translate(-202.92614,15.471367)">
      <g
         id="g2490"
         style="opacity:1">
        <path
           style="color:#000000;font-style:normal;font-variant:normal;font-weight:normal;font-stretch:normal;font-size:medium;line-height:normal;font-family:sans-serif;font-variant-ligatures:normal;font-variant-position:normal;font-variant-caps:normal;font-variant-numeric:normal;font-variant-alternates:normal;font-variant-east-asian:normal;font-feature-settings:normal;font-variation-settings:normal;text-indent:0;text-align:start;text-decoration:none;text-decoration-line:none;text-decoration-style:solid;text-decoration-color:#000000;letter-spacing:normal;word-spacing:normal;text-transform:none;writing-mode:lr-tb;direction:ltr;text-orientation:mixed;dominant-baseline:auto;baseline-shift:baseline;text-anchor:start;white-space:normal;shape-padding:0;shape-margin:0;inline-size:0;clip-rule:nonzero;display:inline;overflow:visible;visibility:visible;isolation:auto;mix-blend-mode:normal;color-interpolation:sRGB;color-interpolation-filters:linearRGB;solid-color:#000000;solid-opacity:1;vector-effect:none;fill:#107b3f;fill-opacity:1;fill-rule:nonzero;stroke:none;stroke-width:0.627805;stroke-linecap:butt;stroke-linejoin:miter;stroke-miterlimit:4;stroke-dasharray:none;stroke-dashoffset:0;stroke-opacity:1;color-rendering:auto;image-rendering:auto;shape-rendering:auto;text-rendering:auto;enable-background:accumulate;stop-color:#000000;stop-opacity:1"
           d="m -1438.9734,14.732322 -58.808,-34.027107 -12.765,-7.382439 -12.7651,7.382439 -58.808,34.027107 -6.2025,3.585153 v 90.010605 l 6.2025,3.58515 59.5278,34.45138 12.0453,6.95816 12.0453,-6.95816 59.5277,-34.45138 6.2025,-3.58515 V 18.317475 Z m 0,90.222748 -71.573,41.40954 -71.5731,-41.40954 V 22.114765 l 71.5731,-41.40955 v 0 l 71.573,41.40955 z"
           id="path2492" />
        <path
           style="color:#000000;font-style:normal;font-variant:normal;font-weight:normal;font-stretch:normal;font-size:medium;line-height:normal;font-family:sans-serif;font-variant-ligatures:normal;font-variant-position:normal;font-variant-caps:normal;font-variant-numeric:normal;font-variant-alternates:normal;font-variant-east-asian:normal;font-feature-settings:normal;font-variation-settings:normal;text-indent:0;text-align:start;text-decoration:none;text-decoration-line:none;text-decoration-style:solid;text-decoration-color:#000000;letter-spacing:normal;word-spacing:normal;text-transform:none;writing-mode:lr-tb;direction:ltr;text-orientation:mixed;dominant-baseline:auto;baseline-shift:baseline;text-anchor:start;white-space:normal;shape-padding:0;shape-margin:0;inline-size:0;clip-rule:nonzero;display:inline;overflow:visible;visibility:visible;isolation:auto;mix-blend-mode:normal;color-interpolation:sRGB;color-interpolation-filters:linearRGB;solid-color:#000000;solid-opacity:1;vector-effect:none;fill:#107b3f;fill-opacity:1;fill-rule:nonzero;stroke:none;stroke-width:0.627805;stroke-linecap:butt;stroke-linejoin:miter;stroke-miterlimit:4;stroke-dasharray:none;stroke-dashoffset:0;stroke-opacity:1;color-rendering:auto;image-rendering:auto;shape-rendering:auto;text-rendering:auto;enable-background:accumulate;stop-color:#000000;stop-opacity:1"
           d="m -1510.5469,-27.039062 -12.9219,7.472656 -58.8085,34.027344 -6.3594,3.675781 v 90.373051 l 6.3594,3.67578 59.5293,34.45117 12.2011,7.04883 12.2031,-7.04883 59.5274,-34.45117 6.3594,-3.67578 V 18.136719 l -6.3594,-3.675781 -58.8086,-34.027344 z m 0,0.724609 12.6074,7.291015 58.8086,34.027344 6.0469,3.494141 v 89.648433 l -6.0469,3.49414 -59.5273,34.45313 -11.8887,6.86719 -11.8886,-6.86719 -59.5274,-34.45313 -6.0449,-3.49414 V 18.498047 l 6.0449,-3.494141 58.8086,-34.027344 z m 0,6.65625 -71.8867,41.591797 v 83.203126 l 71.8867,41.58984 71.8867,-41.58984 v -0.18164 -83.021486 z m 0,0.726562 71.2598,41.226563 v 82.478518 l -71.2598,41.22851 -71.2578,-41.22851 V 22.294922 Z"
           id="path2494" />
      </g>
      <path
         style="fill:#ffffff;fill-opacity:1;stroke-width:3.25903"
         d="m 261.74122,145.25043 -37.95735,-21.93697 0.1675,-43.616608 0.16751,-43.616613 37.75185,-21.842763 c 32.12482,-18.5870216 37.95405,-21.7452912 39.10832,-21.1888265 0.74604,0.359665 17.78194,10.1700315 37.85754,21.8008145 l 36.50108,21.146879 0.16752,43.685068 0.16751,43.685069 -37.85819,21.91046 c -20.82201,12.05076 -37.91618,21.91047 -37.98706,21.91047 -0.0709,0 -17.20968,-9.87164 -38.08623,-21.93698 z"
         id="path2496"
         transform="matrix(0.93749997,0,0,0.93749997,-1791.5878,-11.261005)" />
    </g>
    <g
       transform="matrix(0.72484839,1.2953625,-1.2953626,0.72484843,-671.26984,-964.12141)"
       id="g4147"
       style="fill:#004878;fill-opacity:1" />
    <path
       id="path22217"
       d="m -1544.7848,128.88756 0.1906,-0.19093 h -0.063 z"
       class="cls-9"
       inkscape:connector-curvature="0"
       style="fill:#e6b35a;stroke-width:0.627805" />
    <path
       style="fill:none;stroke:#000000;stroke-width:1.875;stroke-linecap:butt;stroke-linejoin:miter;stroke-miterlimit:4;stroke-dasharray:3.75, 3.75;stroke-dashoffset:0;stroke-opacity:0.566802"
       d="m -1784.8644,120.18616 c 0,0 48.8276,-0.57434 59.57,-8.13799 12.9267,-10.60659 -0.9265,-84.274986 35.4658,-86.178615 19.1383,-1.001098 28.0312,3.22145 27.3323,0.749848"
       id="path1603"
       sodipodi:nodetypes="ccsc"
       inkscape:transform-center-x="9.2035497"
       inkscape:transform-center-y="22.870679" />
    <path
       style="fill:none;stroke:#000000;stroke-width:1.875;stroke-linecap:butt;stroke-linejoin:miter;stroke-miterlimit:4;stroke-dasharray:1.875, 1.875;stroke-dashoffset:0;stroke-opacity:1"
       d="m -1785.2706,119.32504 c 0,0 33.1282,-8.61249 46.055,-19.21905 12.9267,-10.606586 27.9882,-66.467326 58.3363,-68.611435 19.1168,-1.350616 27.0886,2.253004 26.3897,-0.218597"
       id="path1605"
       sodipodi:nodetypes="ccsc"
       inkscape:transform-center-x="9.2035497"
       inkscape:transform-center-y="22.870679" />
    <path
       style="fill:none;stroke:#000000;stroke-width:1.875;stroke-linecap:butt;stroke-linejoin:miter;stroke-miterlimit:4;stroke-dasharray:none;stroke-opacity:1"
       d="m -1785.2706,119.32504 c 0,0 43.8475,-3.69022 56.7743,-14.29677 12.9267,-10.606596 19.3704,-64.478586 49.7185,-66.622696 19.1168,-1.35062 36.8418,2.022958 36.1429,-0.448642"
       id="path1607"
       sodipodi:nodetypes="ccsc" />
    <path
       id="path1611"
       d="m -1721.8649,125.78663 0.1906,-0.19093 h -0.063 z"
       class="cls-9"
       inkscape:connector-curvature="0"
       style="fill:#e6b35a;stroke-width:0.627805" />
    <g
       id="g1711"
       transform="translate(-19.354547,-68.321686)">
      <text
         inkscape:transform-center-y="-7.1059813"
         inkscape:transform-center-x="-16.079462"
         transform="matrix(0.9988633,0.01283536,-0.01280829,1.0009734,0,0)"
         id="text1615"
         y="209.17509"
         x="-1701.0486"
         style="font-style:normal;font-weight:normal;font-size:7.53366px;line-height:0%;font-family:sans-serif;letter-spacing:0px;word-spacing:0px;fill:#4d4d4d;fill-opacity:1;stroke:none;stroke-width:0.627805px;stroke-linecap:butt;stroke-linejoin:miter;stroke-opacity:1"
         xml:space="preserve"><tspan
           style="font-style:normal;font-variant:normal;font-weight:normal;font-stretch:normal;font-size:21.1916px;line-height:1.25;font-family:'Fira Code';-inkscape-font-specification:'Fira Code';fill:#4d4d4d;fill-opacity:1;stroke-width:0.627805px"
           y="209.17509"
           x="-1701.0486"
           id="tspan1613"
           sodipodi:role="line">ep crop</tspan></text>
      <g
         id="g1709"
         style="fill:#107b3f;fill-opacity:1"
         transform="matrix(0.41507813,0,0,0.41507812,-1578.1062,-232.49874)">
        <path
           id="path1617"
           style="fill:#107b3f;fill-opacity:1"
           d="m -225.81,1002.7 c 5.1591,-17.41 8.5837,-35.448 8.6432,-53.654 0.22162,-7.546 0.2657,-15.1 -0.0134,-22.645 2.3224,15.881 2.3218,32.039 0.97031,48.007 -1.1419,10.001 -4.816,19.498 -9.5993,28.293 z" />
        <path
           id="path1619"
           style="fill:#107b3f;fill-opacity:1"
           d="m -225.9,1002.6 c -4.363,-27.286 -12.002,-28.204 -10.265,-137.84 -2.3963,18.103 -3.4074,74.222 -1.5304,90.627 2.534,22.148 4.8327,32.689 11.796,47.21 z" />
        <path
           id="path1621"
           style="color:#000000;text-indent:0;text-transform:none;fill:#107b3f;fill-opacity:1"
           d="m -222.84,870.03 a 0.50005,0.50005 0 0 0 -0.375,0.40625 c -1.4082,6.6765 -2.2908,18.823 -2.8125,33.375 -0.5217,14.552 -0.68802,31.498 -0.6875,47.594 5.2e-4,16.095 0.16935,31.348 0.34375,42.594 0.0872,5.6231 0.18459,10.25705 0.25,13.46905 0.0327,1.6057 0.0746,2.8345 0.0937,3.6874 0.01,0.4265 -0.005,0.7492 0,0.9688 0.005,0.2196 0,0.3437 0,0.3438 a 0.50005,0.50005 0 1 0 0.875,-0.3438 c 0.0325,-0.014 0.12579,0.034 0.125,0 -0.005,-0.2192 0.01,-0.5426 0,-0.9688 -0.0191,-0.8523 -0.0611,-2.1136 -0.0937,-3.7187 -0.0654,-3.2101 -0.16283,-7.81635 -0.25,-13.43805 -0.17434,-11.242 -0.34323,-26.506 -0.34375,-42.594 -5.2e-4,-16.088 0.16651,-33.03 0.6875,-47.562 0.52099,-14.533 1.407,-26.703 2.7812,-33.219 a 0.50005,0.50005 0 0 0 -0.59375,-0.59375 z" />
        <path
           id="path1623"
           style="fill:#107b3f;fill-opacity:1"
           d="m -225.46,911.63 c 0,0 -2.5536,-18.607 -9.2321,-28.156 -6.6786,-9.5485 -10.411,-10.773 -10.411,-10.773 0,0 6.4821,5.1415 12.179,16.894 5.6964,11.752 7.4643,22.035 7.4643,22.035 z" />
        <path
           id="path1625"
           style="color:#000000;text-indent:0;text-transform:none;fill:#107b3f;fill-opacity:1"
           d="m -216.17,905.01 a 0.50005,0.50005 0 0 0 -0.13719,0.14228 l -1.5491,2.4324 c -0.28994,0.45258 -0.51579,1.2188 -0.86492,2.392 -0.34914,1.1731 -0.77018,2.7132 -1.2182,4.4811 -0.89602,3.5358 -1.9343,7.9924 -2.9328,12.396 -1.997,8.8069 -3.8072,17.332 -3.8072,17.332 a 0.50025,0.50025 0 0 0 0.98194,0.19175 c 0,0 1.7991,-8.4918 3.794,-17.29 0.99749,-4.399 2.0406,-8.8752 2.9328,-12.396 0.44608,-1.7603 0.86266,-3.2888 1.205,-4.439 0.3423,-1.1502 0.6596,-1.9709 0.75798,-2.1245 l 1.5491,-2.4324 a 0.50005,0.50005 0 0 0 -0.7114,-0.68591 z" />
        <path
           id="path1627"
           style="fill:#107b3f;fill-opacity:1"
           d="m -225.41,943.29 c 0,0 0.26597,-13.817 12.77,-27.376 12.50403,-13.559 20.733,-18.763 20.733,-18.763 0,0 -13.382,10.779 -22.959,24.426 -9.5764,13.647 -10.545,21.713 -10.545,21.713 z" />
        <g
           id="g1663"
           style="fill:#107b3f;fill-opacity:1"
           transform="matrix(-0.62271,-0.066476,-0.066476,0.62271,-300.1,314.63)">
          <path
             id="path1629"
             style="fill:#107b3f;fill-opacity:1"
             d="m -218.21,10.15 a 0.98215,2.5893264 0 1 1 -1.9643,0 0.98215,2.5893264 0 1 1 1.9643,0 z"
             transform="translate(2.6786,853.19)" />
          <path
             id="path1631"
             style="fill:#107b3f;fill-opacity:1"
             d="m -218.21,10.15 a 0.98215,2.5893264 0 1 1 -1.9643,0 0.98215,2.5893264 0 1 1 1.9643,0 z"
             transform="matrix(0.99427,-0.10689,0.10689,0.99427,-2.674,818.01)" />
          <path
             id="path1633"
             style="fill:#107b3f;fill-opacity:1"
             d="m -218.21,10.15 a 0.98215,2.5893264 0 1 1 -1.9643,0 0.98215,2.5893264 0 1 1 1.9643,0 z"
             transform="translate(-2.8571,850.87)" />
          <path
             id="path1635"
             style="fill:#107b3f;fill-opacity:1"
             d="m -218.21,10.15 a 0.98215,2.5893264 0 1 1 -1.9643,0 0.98215,2.5893264 0 1 1 1.9643,0 z"
             transform="translate(-1.6429,836.05)" />
          <path
             id="path1637"
             style="fill:#107b3f;fill-opacity:1"
             d="m -218.21,10.15 a 0.98215,2.5893264 0 1 1 -1.9643,0 0.98215,2.5893264 0 1 1 1.9643,0 z"
             transform="matrix(0.98329,-0.18203,0.18203,0.98329,-10.901,788.83)" />
          <path
             id="path1639"
             style="fill:#107b3f;fill-opacity:1"
             d="m -217.58,840.59 c 0.0357,0.77032 0.008,1.5851 -0.35528,2.2831 -0.13088,0.32173 -0.56882,0.5006 -0.82774,0.21154 -0.39824,-0.41428 -0.55622,-0.99344 -0.67359,-1.5415 -0.1579,-0.91349 -0.19028,-1.878 0.1002,-2.7685 0.10544,-0.2956 0.27498,-0.68027 0.63431,-0.70643 0.41466,0.0425 0.61189,0.47988 0.76207,0.8158 0.22224,0.54116 0.31897,1.1251 0.36003,1.7059 z" />
          <path
             id="path1641"
             style="fill:#107b3f;fill-opacity:1"
             d="m -218.21,10.15 a 0.98215,2.5893264 0 1 1 -1.9643,0 0.98215,2.5893264 0 1 1 1.9643,0 z"
             transform="translate(-0.44643,855.25)" />
          <path
             id="path1643"
             style="fill:#107b3f;fill-opacity:1"
             d="m -218.21,10.15 a 0.98215,2.5893264 0 1 1 -1.9643,0 0.98215,2.5893264 0 1 1 1.9643,0 z"
             transform="matrix(0.99427,-0.10689,0.10689,0.99427,-4.0487,821.93)" />
          <path
             id="path1645"
             style="fill:#107b3f;fill-opacity:1"
             d="m -218.21,10.15 a 0.98215,2.5893264 0 1 1 -1.9643,0 0.98215,2.5893264 0 1 1 1.9643,0 z"
             transform="translate(-4.4107,834.62)" />
          <path
             id="path1647"
             style="fill:#107b3f;fill-opacity:1"
             d="m -218.21,10.15 a 0.98215,2.5893264 0 1 1 -1.9643,0 0.98215,2.5893264 0 1 1 1.9643,0 z"
             transform="matrix(0.99798,-0.063573,0.063573,0.99798,-2.9216,815.64)" />
          <path
             id="path1649"
             style="fill:#107b3f;fill-opacity:1"
             d="m -218.21,10.15 a 0.98215,2.5893264 0 1 1 -1.9643,0 0.98215,2.5893264 0 1 1 1.9643,0 z"
             transform="matrix(0.99427,-0.10689,0.10689,0.99427,-0.022327,820.95)" />
          <path
             id="path1651"
             style="fill:#107b3f;fill-opacity:1"
             d="m -218.21,10.15 a 0.98215,2.5893264 0 1 1 -1.9643,0 0.98215,2.5893264 0 1 1 1.9643,0 z"
             transform="matrix(0.99427,-0.10689,0.10689,0.99427,-5.7878,817.44)" />
          <path
             id="path1653"
             style="fill:#107b3f;fill-opacity:1"
             d="m -218.21,10.15 a 0.98215,2.5893264 0 1 1 -1.9643,0 0.98215,2.5893264 0 1 1 1.9643,0 z"
             transform="translate(1.7857,837.39)" />
          <path
             id="path1655"
             style="fill:#107b3f;fill-opacity:1"
             d="m -218.21,10.15 a 0.98215,2.5893264 0 1 1 -1.9643,0 0.98215,2.5893264 0 1 1 1.9643,0 z"
             transform="translate(3.8948e-8,849.44)" />
          <path
             id="path1657"
             style="fill:#107b3f;fill-opacity:1"
             d="m -219.34,832.82 c 0.18242,0.74926 0.31133,1.5542 0.0884,2.3089 -0.0669,0.34083 -0.46247,0.60024 -0.77193,0.3661 -0.47019,-0.33037 -0.73613,-0.86857 -0.95626,-1.384 -0.32986,-0.86636 -0.5463,-1.8068 -0.4317,-2.7365 0.0469,-0.31032 0.13965,-0.72034 0.48734,-0.81481 0.41512,-0.0377 0.69243,0.35386 0.90415,0.65481 0.32174,0.4886 0.52848,1.0432 0.67999,1.6054 z" />
          <path
             id="path1659"
             style="fill:#107b3f;fill-opacity:1"
             d="m -222.04,835.15 c 0.1673,0.75277 0.27996,1.5602 0.0419,2.3102 -0.0737,0.33944 -0.47445,0.59082 -0.77913,0.35049 -0.46345,-0.33978 -0.71849,-0.88321 -0.92819,-1.403 -0.31235,-0.87283 -0.50982,-1.8175 -0.3765,-2.7446 0.0531,-0.30931 0.15412,-0.71739 0.50363,-0.80484 0.4158,-0.0293 0.68518,0.36774 0.89079,0.6729 0.31183,0.49497 0.50737,1.0536 0.64752,1.6188 z" />
          <path
             id="path1661"
             style="fill:#107b3f;fill-opacity:1"
             d="m -223.17,829.85 c 0.1673,0.75277 0.27996,1.5602 0.0419,2.3102 -0.0737,0.33944 -0.47445,0.59082 -0.77913,0.35049 -0.46345,-0.33978 -0.71849,-0.88321 -0.92819,-1.403 -0.31235,-0.87283 -0.50982,-1.8175 -0.3765,-2.7446 0.0531,-0.30931 0.15412,-0.71739 0.50363,-0.80484 0.4158,-0.0293 0.68518,0.36774 0.89079,0.6729 0.31183,0.49497 0.50737,1.0536 0.64752,1.6188 z" />
        </g>
        <g
           id="g1699"
           style="fill:#107b3f;fill-opacity:1"
           transform="matrix(-0.39261,-0.22268,-0.22268,0.39261,-107.73,514.43)">
          <path
             id="path1665"
             style="fill:#107b3f;fill-opacity:1"
             d="m -218.21,10.15 a 0.98215,2.5893264 0 1 1 -1.9643,0 0.98215,2.5893264 0 1 1 1.9643,0 z"
             transform="translate(2.6786,853.19)" />
          <path
             id="path1667"
             style="fill:#107b3f;fill-opacity:1"
             d="m -218.21,10.15 a 0.98215,2.5893264 0 1 1 -1.9643,0 0.98215,2.5893264 0 1 1 1.9643,0 z"
             transform="matrix(0.99427,-0.10689,0.10689,0.99427,-2.674,818.01)" />
          <path
             id="path1669"
             style="fill:#107b3f;fill-opacity:1"
             d="m -218.21,10.15 a 0.98215,2.5893264 0 1 1 -1.9643,0 0.98215,2.5893264 0 1 1 1.9643,0 z"
             transform="translate(-2.8571,850.87)" />
          <path
             id="path1671"
             style="fill:#107b3f;fill-opacity:1"
             d="m -218.21,10.15 a 0.98215,2.5893264 0 1 1 -1.9643,0 0.98215,2.5893264 0 1 1 1.9643,0 z"
             transform="translate(-1.6429,836.05)" />
          <path
             id="path1673"
             style="fill:#107b3f;fill-opacity:1"
             d="m -218.21,10.15 a 0.98215,2.5893264 0 1 1 -1.9643,0 0.98215,2.5893264 0 1 1 1.9643,0 z"
             transform="matrix(0.98329,-0.18203,0.18203,0.98329,-10.901,788.83)" />
          <path
             id="path1675"
             style="fill:#107b3f;fill-opacity:1"
             d="m -217.58,840.59 c 0.0357,0.77032 0.008,1.5851 -0.35528,2.2831 -0.13088,0.32173 -0.56882,0.5006 -0.82774,0.21154 -0.39824,-0.41428 -0.55622,-0.99344 -0.67359,-1.5415 -0.1579,-0.91349 -0.19028,-1.878 0.1002,-2.7685 0.10544,-0.2956 0.27498,-0.68027 0.63431,-0.70643 0.41466,0.0425 0.61189,0.47988 0.76207,0.8158 0.22224,0.54116 0.31897,1.1251 0.36003,1.7059 z" />
          <path
             id="path1677"
             style="fill:#107b3f;fill-opacity:1"
             d="m -218.21,10.15 a 0.98215,2.5893264 0 1 1 -1.9643,0 0.98215,2.5893264 0 1 1 1.9643,0 z"
             transform="translate(-0.44643,855.25)" />
          <path
             id="path1679"
             style="fill:#107b3f;fill-opacity:1"
             d="m -218.21,10.15 a 0.98215,2.5893264 0 1 1 -1.9643,0 0.98215,2.5893264 0 1 1 1.9643,0 z"
             transform="matrix(0.99427,-0.10689,0.10689,0.99427,-4.0487,821.93)" />
          <path
             id="path1681"
             style="fill:#107b3f;fill-opacity:1"
             d="m -218.21,10.15 a 0.98215,2.5893264 0 1 1 -1.9643,0 0.98215,2.5893264 0 1 1 1.9643,0 z"
             transform="translate(-4.4107,834.62)" />
          <path
             id="path1683"
             style="fill:#107b3f;fill-opacity:1"
             d="m -218.21,10.15 a 0.98215,2.5893264 0 1 1 -1.9643,0 0.98215,2.5893264 0 1 1 1.9643,0 z"
             transform="matrix(0.99798,-0.063573,0.063573,0.99798,-2.9216,815.64)" />
          <path
             id="path1685"
             style="fill:#107b3f;fill-opacity:1"
             d="m -218.21,10.15 a 0.98215,2.5893264 0 1 1 -1.9643,0 0.98215,2.5893264 0 1 1 1.9643,0 z"
             transform="matrix(0.99427,-0.10689,0.10689,0.99427,-0.022327,820.95)" />
          <path
             id="path1687"
             style="fill:#107b3f;fill-opacity:1"
             d="m -218.21,10.15 a 0.98215,2.5893264 0 1 1 -1.9643,0 0.98215,2.5893264 0 1 1 1.9643,0 z"
             transform="matrix(0.99427,-0.10689,0.10689,0.99427,-5.7878,817.44)" />
          <path
             id="path1689"
             style="fill:#107b3f;fill-opacity:1"
             d="m -218.21,10.15 a 0.98215,2.5893264 0 1 1 -1.9643,0 0.98215,2.5893264 0 1 1 1.9643,0 z"
             transform="translate(1.7857,837.39)" />
          <path
             id="path1691"
             style="fill:#107b3f;fill-opacity:1"
             d="m -218.21,10.15 a 0.98215,2.5893264 0 1 1 -1.9643,0 0.98215,2.5893264 0 1 1 1.9643,0 z"
             transform="translate(3.8948e-8,849.44)" />
          <path
             id="path1693"
             style="fill:#107b3f;fill-opacity:1"
             d="m -219.34,832.82 c 0.18242,0.74926 0.31133,1.5542 0.0884,2.3089 -0.0669,0.34083 -0.46247,0.60024 -0.77193,0.3661 -0.47019,-0.33037 -0.73613,-0.86857 -0.95626,-1.384 -0.32986,-0.86636 -0.5463,-1.8068 -0.4317,-2.7365 0.0469,-0.31032 0.13965,-0.72034 0.48734,-0.81481 0.41512,-0.0377 0.69243,0.35386 0.90415,0.65481 0.32174,0.4886 0.52848,1.0432 0.67999,1.6054 z" />
          <path
             id="path1695"
             style="fill:#107b3f;fill-opacity:1"
             d="m -222.04,835.15 c 0.1673,0.75277 0.27996,1.5602 0.0419,2.3102 -0.0737,0.33944 -0.47445,0.59082 -0.77913,0.35049 -0.46345,-0.33978 -0.71849,-0.88321 -0.92819,-1.403 -0.31235,-0.87283 -0.50982,-1.8175 -0.3765,-2.7446 0.0531,-0.30931 0.15412,-0.71739 0.50363,-0.80484 0.4158,-0.0293 0.68518,0.36774 0.89079,0.6729 0.31183,0.49497 0.50737,1.0536 0.64752,1.6188 z" />
          <path
             id="path1697"
             style="fill:#107b3f;fill-opacity:1"
             d="m -223.17,829.85 c 0.1673,0.75277 0.27996,1.5602 0.0419,2.3102 -0.0737,0.33944 -0.47445,0.59082 -0.77913,0.35049 -0.46345,-0.33978 -0.71849,-0.88321 -0.92819,-1.403 -0.31235,-0.87283 -0.50982,-1.8175 -0.3765,-2.7446 0.0531,-0.30931 0.15412,-0.71739 0.50363,-0.80484 0.4158,-0.0293 0.68518,0.36774 0.89079,0.6729 0.31183,0.49497 0.50737,1.0536 0.64752,1.6188 z" />
        </g>
        <path
           id="path1701"
           style="fill:#107b3f;fill-opacity:1"
           d="m -194.8,882.01 c 0.003,0.19861 -0.1249,0.39015 -0.30848,0.46538 -0.18035,0.0786 -0.40438,0.0379 -0.54507,-0.0998 -0.14257,-0.13247 -0.19459,-0.35072 -0.12805,-0.53346 0.0643,-0.18941 0.25042,-0.32907 0.45053,-0.33657 0.19453,-0.0126 0.38897,0.10018 0.47581,0.27448 0.0364,0.0708 0.0554,0.15034 0.0553,0.22994 z" />
        <path
           id="path1703"
           style="fill:#107b3f;fill-opacity:1"
           d="m -192.59,886.03 c 0.004,0.25565 -0.16077,0.50221 -0.39708,0.59904 -0.23215,0.10118 -0.52052,0.0488 -0.70162,-0.12846 -0.18352,-0.17052 -0.25048,-0.45145 -0.16483,-0.68668 0.0828,-0.24381 0.32235,-0.42358 0.57993,-0.43324 0.2504,-0.0162 0.50069,0.12896 0.61247,0.35332 0.0469,0.0911 0.0713,0.19352 0.0712,0.29598 z" />
        <path
           id="path1705"
           style="fill:#107b3f;fill-opacity:1"
           d="m -204.29,847.38 c 0.003,0.19861 -0.1249,0.39015 -0.30848,0.46538 -0.18035,0.0786 -0.40438,0.0379 -0.54507,-0.0998 -0.14257,-0.13247 -0.19459,-0.35072 -0.12805,-0.53346 0.0643,-0.18941 0.25042,-0.32907 0.45053,-0.33657 0.19453,-0.0126 0.38897,0.10018 0.47581,0.27448 0.0364,0.0708 0.0554,0.15034 0.0553,0.22994 z" />
        <path
           id="path1707"
           style="fill:#107b3f;fill-opacity:1"
           d="m -227.89,860.11 c 0.004,0.25565 -0.16077,0.50221 -0.39708,0.59904 -0.23215,0.10118 -0.52052,0.0488 -0.70162,-0.12846 -0.18352,-0.17052 -0.25048,-0.45145 -0.16483,-0.68668 0.0828,-0.24381 0.32235,-0.42358 0.57993,-0.43324 0.2504,-0.0162 0.50069,0.12896 0.61247,0.35332 0.0469,0.0911 0.0713,0.19352 0.0712,0.29598 z" />
      </g>
    </g>
    <g
       id="g1811"
       transform="translate(-11.854547,-66.446686)">
      <text
         inkscape:transform-center-y="-7.1059813"
         inkscape:transform-center-x="-16.079462"
         transform="matrix(0.9988633,0.01283536,-0.01280829,1.0009734,0,0)"
         id="text1715"
         y="144.3887"
         x="-1767.8884"
         style="font-style:normal;font-weight:normal;font-size:7.53366px;line-height:0%;font-family:sans-serif;letter-spacing:0px;word-spacing:0px;fill:#4d4d4d;fill-opacity:1;stroke:none;stroke-width:0.627805px;stroke-linecap:butt;stroke-linejoin:miter;stroke-opacity:1"
         xml:space="preserve"><tspan
           style="font-style:normal;font-variant:normal;font-weight:normal;font-stretch:normal;font-size:21.1916px;line-height:1.25;font-family:'Fira Code';-inkscape-font-specification:'Fira Code';fill:#4d4d4d;fill-opacity:1;stroke-width:0.627805px"
           y="144.3887"
           x="-1767.8884"
           id="tspan1713"
           sodipodi:role="line">SE R</tspan></text>
      <g
         id="g1809"
         style="fill:#107b3f;fill-opacity:1;stroke-width:45.1722;stroke-miterlimit:4;stroke-dasharray:none"
         transform="matrix(0.10376953,0,0,0.10376953,-1712.0628,17.926523)">
        <path
           id="path1717"
           style="fill:#107b3f;fill-opacity:1;stroke-width:45.1722;stroke-miterlimit:4;stroke-dasharray:none"
           d="m -225.81,1002.7 c 5.1591,-17.41 8.5837,-35.448 8.6432,-53.654 0.22162,-7.546 0.2657,-15.1 -0.0134,-22.645 2.3224,15.881 2.3218,32.039 0.97031,48.007 -1.1419,10.001 -4.816,19.498 -9.5993,28.293 z" />
        <path
           id="path1719"
           style="fill:#107b3f;fill-opacity:1;stroke-width:45.1722;stroke-miterlimit:4;stroke-dasharray:none"
           d="m -225.9,1002.6 c -4.363,-27.286 -12.002,-28.204 -10.265,-137.84 -2.3963,18.103 -3.4074,74.222 -1.5304,90.627 2.534,22.148 4.8327,32.689 11.796,47.21 z" />
        <path
           id="path1721"
           style="color:#000000;text-indent:0;text-transform:none;fill:#107b3f;fill-opacity:1;stroke-width:45.1722;stroke-miterlimit:4;stroke-dasharray:none"
           d="m -222.84,870.03 a 0.50005,0.50005 0 0 0 -0.375,0.40625 c -1.4082,6.6765 -2.2908,18.823 -2.8125,33.375 -0.5217,14.552 -0.68802,31.498 -0.6875,47.594 5.2e-4,16.095 0.16935,31.348 0.34375,42.594 0.0872,5.6231 0.18459,10.25705 0.25,13.46905 0.0327,1.6057 0.0746,2.8345 0.0937,3.6874 0.01,0.4265 -0.005,0.7492 0,0.9688 0.005,0.2196 0,0.3437 0,0.3438 a 0.50005,0.50005 0 1 0 0.875,-0.3438 c 0.0325,-0.014 0.12579,0.034 0.125,0 -0.005,-0.2192 0.01,-0.5426 0,-0.9688 -0.0191,-0.8523 -0.0611,-2.1136 -0.0937,-3.7187 -0.0654,-3.2101 -0.16283,-7.81635 -0.25,-13.43805 -0.17434,-11.242 -0.34323,-26.506 -0.34375,-42.594 -5.2e-4,-16.088 0.16651,-33.03 0.6875,-47.562 0.52099,-14.533 1.407,-26.703 2.7812,-33.219 a 0.50005,0.50005 0 0 0 -0.59375,-0.59375 z" />
        <path
           id="path1723"
           style="fill:#107b3f;fill-opacity:1;stroke-width:45.1722;stroke-miterlimit:4;stroke-dasharray:none"
           d="m -225.46,911.63 c 0,0 -2.5536,-18.607 -9.2321,-28.156 -6.6786,-9.5485 -10.411,-10.773 -10.411,-10.773 0,0 6.4821,5.1415 12.179,16.894 5.6964,11.752 7.4643,22.035 7.4643,22.035 z" />
        <path
           id="path1725"
           style="color:#000000;text-indent:0;text-transform:none;fill:#107b3f;fill-opacity:1;stroke-width:45.1722;stroke-miterlimit:4;stroke-dasharray:none"
           d="m -216.17,905.01 a 0.50005,0.50005 0 0 0 -0.13719,0.14228 l -1.5491,2.4324 c -0.28994,0.45258 -0.51579,1.2188 -0.86492,2.392 -0.34914,1.1731 -0.77018,2.7132 -1.2182,4.4811 -0.89602,3.5358 -1.9343,7.9924 -2.9328,12.396 -1.997,8.8069 -3.8072,17.332 -3.8072,17.332 a 0.50025,0.50025 0 0 0 0.98194,0.19175 c 0,0 1.7991,-8.4918 3.794,-17.29 0.99749,-4.399 2.0406,-8.8752 2.9328,-12.396 0.44608,-1.7603 0.86266,-3.2888 1.205,-4.439 0.3423,-1.1502 0.6596,-1.9709 0.75798,-2.1245 l 1.5491,-2.4324 a 0.50005,0.50005 0 0 0 -0.7114,-0.68591 z" />
        <path
           id="path1727"
           style="fill:#107b3f;fill-opacity:1;stroke-width:45.1722;stroke-miterlimit:4;stroke-dasharray:none"
           d="m -225.41,943.29 c 0,0 0.26597,-13.817 12.77,-27.376 12.50403,-13.559 20.733,-18.763 20.733,-18.763 0,0 -13.382,10.779 -22.959,24.426 -9.5764,13.647 -10.545,21.713 -10.545,21.713 z" />
        <g
           id="g1763"
           style="fill:#107b3f;fill-opacity:1;stroke-width:72.1315;stroke-miterlimit:4;stroke-dasharray:none"
           transform="matrix(-0.62271,-0.066476,-0.066476,0.62271,-300.1,314.63)">
          <path
             id="path1729"
             style="fill:#107b3f;fill-opacity:1;stroke-width:72.1315;stroke-miterlimit:4;stroke-dasharray:none"
             d="m -218.21,10.15 a 0.98215,2.5893264 0 1 1 -1.9643,0 0.98215,2.5893264 0 1 1 1.9643,0 z"
             transform="translate(2.6786,853.19)" />
          <path
             id="path1731"
             style="fill:#107b3f;fill-opacity:1;stroke-width:72.1316;stroke-miterlimit:4;stroke-dasharray:none"
             d="m -218.21,10.15 a 0.98215,2.5893264 0 1 1 -1.9643,0 0.98215,2.5893264 0 1 1 1.9643,0 z"
             transform="matrix(0.99427,-0.10689,0.10689,0.99427,-2.674,818.01)" />
          <path
             id="path1733"
             style="fill:#107b3f;fill-opacity:1;stroke-width:72.1315;stroke-miterlimit:4;stroke-dasharray:none"
             d="m -218.21,10.15 a 0.98215,2.5893264 0 1 1 -1.9643,0 0.98215,2.5893264 0 1 1 1.9643,0 z"
             transform="translate(-2.8571,850.87)" />
          <path
             id="path1735"
             style="fill:#107b3f;fill-opacity:1;stroke-width:72.1315;stroke-miterlimit:4;stroke-dasharray:none"
             d="m -218.21,10.15 a 0.98215,2.5893264 0 1 1 -1.9643,0 0.98215,2.5893264 0 1 1 1.9643,0 z"
             transform="translate(-1.6429,836.05)" />
          <path
             id="path1737"
             style="fill:#107b3f;fill-opacity:1;stroke-width:72.1317;stroke-miterlimit:4;stroke-dasharray:none"
             d="m -218.21,10.15 a 0.98215,2.5893264 0 1 1 -1.9643,0 0.98215,2.5893264 0 1 1 1.9643,0 z"
             transform="matrix(0.98329,-0.18203,0.18203,0.98329,-10.901,788.83)" />
          <path
             id="path1739"
             style="fill:#107b3f;fill-opacity:1;stroke-width:72.1315;stroke-miterlimit:4;stroke-dasharray:none"
             d="m -217.58,840.59 c 0.0357,0.77032 0.008,1.5851 -0.35528,2.2831 -0.13088,0.32173 -0.56882,0.5006 -0.82774,0.21154 -0.39824,-0.41428 -0.55622,-0.99344 -0.67359,-1.5415 -0.1579,-0.91349 -0.19028,-1.878 0.1002,-2.7685 0.10544,-0.2956 0.27498,-0.68027 0.63431,-0.70643 0.41466,0.0425 0.61189,0.47988 0.76207,0.8158 0.22224,0.54116 0.31897,1.1251 0.36003,1.7059 z" />
          <path
             id="path1741"
             style="fill:#107b3f;fill-opacity:1;stroke-width:72.1315;stroke-miterlimit:4;stroke-dasharray:none"
             d="m -218.21,10.15 a 0.98215,2.5893264 0 1 1 -1.9643,0 0.98215,2.5893264 0 1 1 1.9643,0 z"
             transform="translate(-0.44643,855.25)" />
          <path
             id="path1743"
             style="fill:#107b3f;fill-opacity:1;stroke-width:72.1316;stroke-miterlimit:4;stroke-dasharray:none"
             d="m -218.21,10.15 a 0.98215,2.5893264 0 1 1 -1.9643,0 0.98215,2.5893264 0 1 1 1.9643,0 z"
             transform="matrix(0.99427,-0.10689,0.10689,0.99427,-4.0487,821.93)" />
          <path
             id="path1745"
             style="fill:#107b3f;fill-opacity:1;stroke-width:72.1315;stroke-miterlimit:4;stroke-dasharray:none"
             d="m -218.21,10.15 a 0.98215,2.5893264 0 1 1 -1.9643,0 0.98215,2.5893264 0 1 1 1.9643,0 z"
             transform="translate(-4.4107,834.62)" />
          <path
             id="path1747"
             style="fill:#107b3f;fill-opacity:1;stroke-width:72.1313;stroke-miterlimit:4;stroke-dasharray:none"
             d="m -218.21,10.15 a 0.98215,2.5893264 0 1 1 -1.9643,0 0.98215,2.5893264 0 1 1 1.9643,0 z"
             transform="matrix(0.99798,-0.063573,0.063573,0.99798,-2.9216,815.64)" />
          <path
             id="path1749"
             style="fill:#107b3f;fill-opacity:1;stroke-width:72.1316;stroke-miterlimit:4;stroke-dasharray:none"
             d="m -218.21,10.15 a 0.98215,2.5893264 0 1 1 -1.9643,0 0.98215,2.5893264 0 1 1 1.9643,0 z"
             transform="matrix(0.99427,-0.10689,0.10689,0.99427,-0.022327,820.95)" />
          <path
             id="path1751"
             style="fill:#107b3f;fill-opacity:1;stroke-width:72.1316;stroke-miterlimit:4;stroke-dasharray:none"
             d="m -218.21,10.15 a 0.98215,2.5893264 0 1 1 -1.9643,0 0.98215,2.5893264 0 1 1 1.9643,0 z"
             transform="matrix(0.99427,-0.10689,0.10689,0.99427,-5.7878,817.44)" />
          <path
             id="path1753"
             style="fill:#107b3f;fill-opacity:1;stroke-width:72.1315;stroke-miterlimit:4;stroke-dasharray:none"
             d="m -218.21,10.15 a 0.98215,2.5893264 0 1 1 -1.9643,0 0.98215,2.5893264 0 1 1 1.9643,0 z"
             transform="translate(1.7857,837.39)" />
          <path
             id="path1755"
             style="fill:#107b3f;fill-opacity:1;stroke-width:72.1315;stroke-miterlimit:4;stroke-dasharray:none"
             d="m -218.21,10.15 a 0.98215,2.5893264 0 1 1 -1.9643,0 0.98215,2.5893264 0 1 1 1.9643,0 z"
             transform="translate(3.8948e-8,849.44)" />
          <path
             id="path1757"
             style="fill:#107b3f;fill-opacity:1;stroke-width:72.1315;stroke-miterlimit:4;stroke-dasharray:none"
             d="m -219.34,832.82 c 0.18242,0.74926 0.31133,1.5542 0.0884,2.3089 -0.0669,0.34083 -0.46247,0.60024 -0.77193,0.3661 -0.47019,-0.33037 -0.73613,-0.86857 -0.95626,-1.384 -0.32986,-0.86636 -0.5463,-1.8068 -0.4317,-2.7365 0.0469,-0.31032 0.13965,-0.72034 0.48734,-0.81481 0.41512,-0.0377 0.69243,0.35386 0.90415,0.65481 0.32174,0.4886 0.52848,1.0432 0.67999,1.6054 z" />
          <path
             id="path1759"
             style="fill:#107b3f;fill-opacity:1;stroke-width:72.1315;stroke-miterlimit:4;stroke-dasharray:none"
             d="m -222.04,835.15 c 0.1673,0.75277 0.27996,1.5602 0.0419,2.3102 -0.0737,0.33944 -0.47445,0.59082 -0.77913,0.35049 -0.46345,-0.33978 -0.71849,-0.88321 -0.92819,-1.403 -0.31235,-0.87283 -0.50982,-1.8175 -0.3765,-2.7446 0.0531,-0.30931 0.15412,-0.71739 0.50363,-0.80484 0.4158,-0.0293 0.68518,0.36774 0.89079,0.6729 0.31183,0.49497 0.50737,1.0536 0.64752,1.6188 z" />
          <path
             id="path1761"
             style="fill:#107b3f;fill-opacity:1;stroke-width:72.1315;stroke-miterlimit:4;stroke-dasharray:none"
             d="m -223.17,829.85 c 0.1673,0.75277 0.27996,1.5602 0.0419,2.3102 -0.0737,0.33944 -0.47445,0.59082 -0.77913,0.35049 -0.46345,-0.33978 -0.71849,-0.88321 -0.92819,-1.403 -0.31235,-0.87283 -0.50982,-1.8175 -0.3765,-2.7446 0.0531,-0.30931 0.15412,-0.71739 0.50363,-0.80484 0.4158,-0.0293 0.68518,0.36774 0.89079,0.6729 0.31183,0.49497 0.50737,1.0536 0.64752,1.6188 z" />
        </g>
        <g
           id="g1799"
           style="fill:#107b3f;fill-opacity:1;stroke-width:100.079;stroke-miterlimit:4;stroke-dasharray:none"
           transform="matrix(-0.39261,-0.22268,-0.22268,0.39261,-107.73,514.43)">
          <path
             id="path1765"
             style="fill:#107b3f;fill-opacity:1;stroke-width:100.079;stroke-miterlimit:4;stroke-dasharray:none"
             d="m -218.21,10.15 a 0.98215,2.5893264 0 1 1 -1.9643,0 0.98215,2.5893264 0 1 1 1.9643,0 z"
             transform="translate(2.6786,853.19)" />
          <path
             id="path1767"
             style="fill:#107b3f;fill-opacity:1;stroke-width:100.08;stroke-miterlimit:4;stroke-dasharray:none"
             d="m -218.21,10.15 a 0.98215,2.5893264 0 1 1 -1.9643,0 0.98215,2.5893264 0 1 1 1.9643,0 z"
             transform="matrix(0.99427,-0.10689,0.10689,0.99427,-2.674,818.01)" />
          <path
             id="path1769"
             style="fill:#107b3f;fill-opacity:1;stroke-width:100.079;stroke-miterlimit:4;stroke-dasharray:none"
             d="m -218.21,10.15 a 0.98215,2.5893264 0 1 1 -1.9643,0 0.98215,2.5893264 0 1 1 1.9643,0 z"
             transform="translate(-2.8571,850.87)" />
          <path
             id="path1771"
             style="fill:#107b3f;fill-opacity:1;stroke-width:100.079;stroke-miterlimit:4;stroke-dasharray:none"
             d="m -218.21,10.15 a 0.98215,2.5893264 0 1 1 -1.9643,0 0.98215,2.5893264 0 1 1 1.9643,0 z"
             transform="translate(-1.6429,836.05)" />
          <path
             id="path1773"
             style="fill:#107b3f;fill-opacity:1;stroke-width:100.08;stroke-miterlimit:4;stroke-dasharray:none"
             d="m -218.21,10.15 a 0.98215,2.5893264 0 1 1 -1.9643,0 0.98215,2.5893264 0 1 1 1.9643,0 z"
             transform="matrix(0.98329,-0.18203,0.18203,0.98329,-10.901,788.83)" />
          <path
             id="path1775"
             style="fill:#107b3f;fill-opacity:1;stroke-width:100.079;stroke-miterlimit:4;stroke-dasharray:none"
             d="m -217.58,840.59 c 0.0357,0.77032 0.008,1.5851 -0.35528,2.2831 -0.13088,0.32173 -0.56882,0.5006 -0.82774,0.21154 -0.39824,-0.41428 -0.55622,-0.99344 -0.67359,-1.5415 -0.1579,-0.91349 -0.19028,-1.878 0.1002,-2.7685 0.10544,-0.2956 0.27498,-0.68027 0.63431,-0.70643 0.41466,0.0425 0.61189,0.47988 0.76207,0.8158 0.22224,0.54116 0.31897,1.1251 0.36003,1.7059 z" />
          <path
             id="path1777"
             style="fill:#107b3f;fill-opacity:1;stroke-width:100.079;stroke-miterlimit:4;stroke-dasharray:none"
             d="m -218.21,10.15 a 0.98215,2.5893264 0 1 1 -1.9643,0 0.98215,2.5893264 0 1 1 1.9643,0 z"
             transform="translate(-0.44643,855.25)" />
          <path
             id="path1779"
             style="fill:#107b3f;fill-opacity:1;stroke-width:100.08;stroke-miterlimit:4;stroke-dasharray:none"
             d="m -218.21,10.15 a 0.98215,2.5893264 0 1 1 -1.9643,0 0.98215,2.5893264 0 1 1 1.9643,0 z"
             transform="matrix(0.99427,-0.10689,0.10689,0.99427,-4.0487,821.93)" />
          <path
             id="path1781"
             style="fill:#107b3f;fill-opacity:1;stroke-width:100.079;stroke-miterlimit:4;stroke-dasharray:none"
             d="m -218.21,10.15 a 0.98215,2.5893264 0 1 1 -1.9643,0 0.98215,2.5893264 0 1 1 1.9643,0 z"
             transform="translate(-4.4107,834.62)" />
          <path
             id="path1783"
             style="fill:#107b3f;fill-opacity:1;stroke-width:100.079;stroke-miterlimit:4;stroke-dasharray:none"
             d="m -218.21,10.15 a 0.98215,2.5893264 0 1 1 -1.9643,0 0.98215,2.5893264 0 1 1 1.9643,0 z"
             transform="matrix(0.99798,-0.063573,0.063573,0.99798,-2.9216,815.64)" />
          <path
             id="path1785"
             style="fill:#107b3f;fill-opacity:1;stroke-width:100.08;stroke-miterlimit:4;stroke-dasharray:none"
             d="m -218.21,10.15 a 0.98215,2.5893264 0 1 1 -1.9643,0 0.98215,2.5893264 0 1 1 1.9643,0 z"
             transform="matrix(0.99427,-0.10689,0.10689,0.99427,-0.022327,820.95)" />
          <path
             id="path1787"
             style="fill:#107b3f;fill-opacity:1;stroke-width:100.08;stroke-miterlimit:4;stroke-dasharray:none"
             d="m -218.21,10.15 a 0.98215,2.5893264 0 1 1 -1.9643,0 0.98215,2.5893264 0 1 1 1.9643,0 z"
             transform="matrix(0.99427,-0.10689,0.10689,0.99427,-5.7878,817.44)" />
          <path
             id="path1789"
             style="fill:#107b3f;fill-opacity:1;stroke-width:100.079;stroke-miterlimit:4;stroke-dasharray:none"
             d="m -218.21,10.15 a 0.98215,2.5893264 0 1 1 -1.9643,0 0.98215,2.5893264 0 1 1 1.9643,0 z"
             transform="translate(1.7857,837.39)" />
          <path
             id="path1791"
             style="fill:#107b3f;fill-opacity:1;stroke-width:100.079;stroke-miterlimit:4;stroke-dasharray:none"
             d="m -218.21,10.15 a 0.98215,2.5893264 0 1 1 -1.9643,0 0.98215,2.5893264 0 1 1 1.9643,0 z"
             transform="translate(3.8948e-8,849.44)" />
          <path
             id="path1793"
             style="fill:#107b3f;fill-opacity:1;stroke-width:100.079;stroke-miterlimit:4;stroke-dasharray:none"
             d="m -219.34,832.82 c 0.18242,0.74926 0.31133,1.5542 0.0884,2.3089 -0.0669,0.34083 -0.46247,0.60024 -0.77193,0.3661 -0.47019,-0.33037 -0.73613,-0.86857 -0.95626,-1.384 -0.32986,-0.86636 -0.5463,-1.8068 -0.4317,-2.7365 0.0469,-0.31032 0.13965,-0.72034 0.48734,-0.81481 0.41512,-0.0377 0.69243,0.35386 0.90415,0.65481 0.32174,0.4886 0.52848,1.0432 0.67999,1.6054 z" />
          <path
             id="path1795"
             style="fill:#107b3f;fill-opacity:1;stroke-width:100.079;stroke-miterlimit:4;stroke-dasharray:none"
             d="m -222.04,835.15 c 0.1673,0.75277 0.27996,1.5602 0.0419,2.3102 -0.0737,0.33944 -0.47445,0.59082 -0.77913,0.35049 -0.46345,-0.33978 -0.71849,-0.88321 -0.92819,-1.403 -0.31235,-0.87283 -0.50982,-1.8175 -0.3765,-2.7446 0.0531,-0.30931 0.15412,-0.71739 0.50363,-0.80484 0.4158,-0.0293 0.68518,0.36774 0.89079,0.6729 0.31183,0.49497 0.50737,1.0536 0.64752,1.6188 z" />
          <path
             id="path1797"
             style="fill:#107b3f;fill-opacity:1;stroke-width:100.079;stroke-miterlimit:4;stroke-dasharray:none"
             d="m -223.17,829.85 c 0.1673,0.75277 0.27996,1.5602 0.0419,2.3102 -0.0737,0.33944 -0.47445,0.59082 -0.77913,0.35049 -0.46345,-0.33978 -0.71849,-0.88321 -0.92819,-1.403 -0.31235,-0.87283 -0.50982,-1.8175 -0.3765,-2.7446 0.0531,-0.30931 0.15412,-0.71739 0.50363,-0.80484 0.4158,-0.0293 0.68518,0.36774 0.89079,0.6729 0.31183,0.49497 0.50737,1.0536 0.64752,1.6188 z" />
        </g>
        <path
           id="path1801"
           style="fill:#107b3f;fill-opacity:1;stroke-width:45.1722;stroke-miterlimit:4;stroke-dasharray:none"
           d="m -194.8,882.01 c 0.003,0.19861 -0.1249,0.39015 -0.30848,0.46538 -0.18035,0.0786 -0.40438,0.0379 -0.54507,-0.0998 -0.14257,-0.13247 -0.19459,-0.35072 -0.12805,-0.53346 0.0643,-0.18941 0.25042,-0.32907 0.45053,-0.33657 0.19453,-0.0126 0.38897,0.10018 0.47581,0.27448 0.0364,0.0708 0.0554,0.15034 0.0553,0.22994 z" />
        <path
           id="path1803"
           style="fill:#107b3f;fill-opacity:1;stroke-width:45.1722;stroke-miterlimit:4;stroke-dasharray:none"
           d="m -192.59,886.03 c 0.004,0.25565 -0.16077,0.50221 -0.39708,0.59904 -0.23215,0.10118 -0.52052,0.0488 -0.70162,-0.12846 -0.18352,-0.17052 -0.25048,-0.45145 -0.16483,-0.68668 0.0828,-0.24381 0.32235,-0.42358 0.57993,-0.43324 0.2504,-0.0162 0.50069,0.12896 0.61247,0.35332 0.0469,0.0911 0.0713,0.19352 0.0712,0.29598 z" />
        <path
           id="path1805"
           style="fill:#107b3f;fill-opacity:1;stroke-width:45.1722;stroke-miterlimit:4;stroke-dasharray:none"
           d="m -204.29,847.38 c 0.003,0.19861 -0.1249,0.39015 -0.30848,0.46538 -0.18035,0.0786 -0.40438,0.0379 -0.54507,-0.0998 -0.14257,-0.13247 -0.19459,-0.35072 -0.12805,-0.53346 0.0643,-0.18941 0.25042,-0.32907 0.45053,-0.33657 0.19453,-0.0126 0.38897,0.10018 0.47581,0.27448 0.0364,0.0708 0.0554,0.15034 0.0553,0.22994 z" />
        <path
           id="path1807"
           style="fill:#107b3f;fill-opacity:1;stroke-width:45.1722;stroke-miterlimit:4;stroke-dasharray:none"
           d="m -227.89,860.11 c 0.004,0.25565 -0.16077,0.50221 -0.39708,0.59904 -0.23215,0.10118 -0.52052,0.0488 -0.70162,-0.12846 -0.18352,-0.17052 -0.25048,-0.45145 -0.16483,-0.68668 0.0828,-0.24381 0.32235,-0.42358 0.57993,-0.43324 0.2504,-0.0162 0.50069,0.12896 0.61247,0.35332 0.0469,0.0911 0.0713,0.19352 0.0712,0.29598 z" />
      </g>
    </g>
  </g>
  <metadata
     id="metadata207">
    <rdf:RDF>
      <cc:Work>
        <dc:format>image/svg+xml</dc:format>
        <dc:type
           rdf:resource="http://purl.org/dc/dcmitype/StillImage" />
        <cc:license
           rdf:resource="http://creativecommons.org/publicdomain/zero/1.0/" />
        <dc:publisher>
          <cc:Agent
             rdf:about="http://openclipart.org/">
            <dc:title />
          </cc:Agent>
        </dc:publisher>
        <dc:title>epicrop</dc:title>
        <dc:date>2020-12-03</dc:date>
        <dc:description>R epicrop package hex sticker, https://github.com/adamhsparks/epicrop</dc:description>
        <dc:source>https://github.com/adamhsparks/epicrop/inst/vector/</dc:source>
        <dc:creator>
          <cc:Agent>
            <dc:title>adamhsparks</dc:title>
          </cc:Agent>
        </dc:creator>
        <dc:subject>
          <rdf:Bag>
            <rdf:li>R</rdf:li>
            <rdf:li>hexsticker</rdf:li>
          </rdf:Bag>
        </dc:subject>
        <dc:rights>
          <cc:Agent>
            <dc:title>CC0</dc:title>
          </cc:Agent>
        </dc:rights>
        <dc:contributor>
          <cc:Agent>
            <dc:title>raphaelb</dc:title>
          </cc:Agent>
        </dc:contributor>
      </cc:Work>
      <cc:License
         rdf:about="http://creativecommons.org/publicdomain/zero/1.0/">
        <cc:permits
           rdf:resource="http://creativecommons.org/ns#Reproduction" />
        <cc:permits
           rdf:resource="http://creativecommons.org/ns#Distribution" />
        <cc:permits
           rdf:resource="http://creativecommons.org/ns#DerivativeWorks" />
      </cc:License>
    </rdf:RDF>
  </metadata>
</svg>
